<?xml version="1.0" encoding="UTF-8"?>
<!DOCTYPE svg PUBLIC "-//W3C//DTD SVG 1.1//EN" "http://www.w3.org/Graphics/SVG/1.1/DTD/svg11.dtd">
<svg xmlns="http://www.w3.org/2000/svg" version="1.1" width="2560px" height="1600px" style="shape-rendering:geometricPrecision; text-rendering:geometricPrecision; image-rendering:optimizeQuality; fill-rule:evenodd; clip-rule:evenodd" xmlns:xlink="http://www.w3.org/1999/xlink">
<g><path style="opacity:0.995" fill="#d7d1c8" d="M 1274.5,422.5 C 1393.41,423.922 1493.57,467.255 1575,552.5C 1663.87,656.139 1690.53,774.139 1655,906.5C 1615.98,1021.85 1540.15,1102.69 1427.5,1149C 1341.02,1181.24 1253.36,1184.9 1164.5,1160C 1053.65,1125.13 972.813,1055.63 922,951.5C 877.333,850.5 877.333,749.5 922,648.5C 978.111,534.966 1067.94,463.132 1191.5,433C 1219.03,427.383 1246.7,423.883 1274.5,422.5 Z"/></g>
<g><path style="opacity:1" fill="#f68e1f" d="M 1269.5,606.5 C 1271.5,606.5 1273.5,606.5 1275.5,606.5C 1275.83,607.167 1276.17,607.833 1276.5,608.5C 1268.5,621.318 1263.33,635.318 1261,650.5C 1256.92,679.687 1255.42,709.02 1256.5,738.5C 1244.86,739.388 1233.19,739.721 1221.5,739.5C 1216.89,712.674 1217.73,686.008 1224,659.5C 1227.27,646.618 1232.94,634.951 1241,624.5C 1244.79,619.863 1249.29,616.197 1254.5,613.5C 1259.28,610.579 1264.28,608.245 1269.5,606.5 Z"/></g>
<g><path style="opacity:1" fill="#ec1c49" d="M 1269.5,606.5 C 1264.28,608.245 1259.28,610.579 1254.5,613.5C 1226.67,621.799 1206.5,639.466 1194,666.5C 1184.96,690.873 1184.12,715.54 1191.5,740.5C 1180.97,741.496 1170.3,742.496 1159.5,743.5C 1146.3,709.042 1150.8,677.042 1173,647.5C 1192.51,626.158 1216.68,613.325 1245.5,609C 1253.44,607.508 1261.44,606.675 1269.5,606.5 Z"/></g>
<g><path style="opacity:1" fill="#6db33f" d="M 1275.5,606.5 C 1278.83,607.167 1282.17,607.833 1285.5,608.5C 1289.21,609.344 1292.88,610.344 1296.5,611.5C 1313.44,622.324 1324.27,637.658 1329,657.5C 1331.74,666.636 1333.41,675.969 1334,685.5C 1334.99,703.564 1334.49,721.564 1332.5,739.5C 1320.84,738.848 1309.18,738.515 1297.5,738.5C 1298.71,707.973 1296.87,677.64 1292,647.5C 1289.69,635.239 1285.69,623.572 1280,612.5C 1279.05,610.907 1277.88,609.574 1276.5,608.5C 1276.17,607.833 1275.83,607.167 1275.5,606.5 Z"/></g>
<g><path style="opacity:1" fill="#5161ac" d="M 1285.5,608.5 C 1313.19,607.779 1338.86,614.945 1362.5,630C 1392.41,652.657 1405.91,682.823 1403,720.5C 1401.19,728.424 1398.69,736.091 1395.5,743.5C 1384.71,742.289 1374.04,741.289 1363.5,740.5C 1368.07,725.96 1369.57,710.96 1368,695.5C 1362.04,652.37 1338.21,624.37 1296.5,611.5C 1292.88,610.344 1289.21,609.344 1285.5,608.5 Z"/></g>
<g><path style="opacity:1" fill="#fee462" d="M 1276.5,608.5 C 1277.88,609.574 1279.05,610.907 1280,612.5C 1285.69,623.572 1289.69,635.239 1292,647.5C 1296.87,677.64 1298.71,707.973 1297.5,738.5C 1283.83,738.5 1270.17,738.5 1256.5,738.5C 1255.42,709.02 1256.92,679.687 1261,650.5C 1263.33,635.318 1268.5,621.318 1276.5,608.5 Z"/></g>
<g><path style="opacity:1" fill="#049ac7" d="M 1296.5,611.5 C 1338.21,624.37 1362.04,652.37 1368,695.5C 1369.57,710.96 1368.07,725.96 1363.5,740.5C 1353.08,740.808 1342.75,740.475 1332.5,739.5C 1334.49,721.564 1334.99,703.564 1334,685.5C 1333.41,675.969 1331.74,666.636 1329,657.5C 1324.27,637.658 1313.44,622.324 1296.5,611.5 Z"/></g>
<g><path style="opacity:1" fill="#ec4398" d="M 1254.5,613.5 C 1249.29,616.197 1244.79,619.863 1241,624.5C 1232.94,634.951 1227.27,646.618 1224,659.5C 1217.73,686.008 1216.89,712.674 1221.5,739.5C 1211.51,740.055 1201.51,740.388 1191.5,740.5C 1184.12,715.54 1184.96,690.873 1194,666.5C 1206.5,639.466 1226.67,621.799 1254.5,613.5 Z"/></g>
<g><path style="opacity:1" fill="#e5e0da" d="M 1081.5,675.5 C 1087.93,675.271 1091.6,678.271 1092.5,684.5C 1097.42,684.043 1100.92,686.043 1103,690.5C 1108.84,687.079 1113.67,688.079 1117.5,693.5C 1127.27,694.39 1130.44,699.39 1127,708.5C 1123.4,711.964 1119.56,712.297 1115.5,709.5C 1113.59,716.139 1109.26,718.306 1102.5,716C 1101.97,715.308 1101.31,714.808 1100.5,714.5C 1099.64,716.197 1098.3,717.363 1096.5,718C 1091.44,717.438 1087.44,719.104 1084.5,723C 1080.96,723.851 1077.62,723.351 1074.5,721.5C 1068.47,726.028 1063.47,725.028 1059.5,718.5C 1051.51,722.503 1046.84,720.17 1045.5,711.5C 1035.16,709.954 1032.83,704.788 1038.5,696C 1041.01,694.748 1043.68,694.248 1046.5,694.5C 1047.82,686.831 1052.16,684.165 1059.5,686.5C 1064.35,681.582 1069.52,681.249 1075,685.5C 1075.37,680.968 1077.54,677.634 1081.5,675.5 Z"/></g>
<g><path style="opacity:1" fill="#7e6b56" d="M 1256.5,738.5 C 1270.17,738.5 1283.83,738.5 1297.5,738.5C 1309.18,738.515 1320.84,738.848 1332.5,739.5C 1342.75,740.475 1353.08,740.808 1363.5,740.5C 1374.04,741.289 1384.71,742.289 1395.5,743.5C 1396.72,745.332 1396.05,746.332 1393.5,746.5C 1389.15,745.46 1384.82,745.46 1380.5,746.5C 1371.55,763.397 1362.89,780.397 1354.5,797.5C 1340.39,824.228 1326.39,851.061 1312.5,878C 1320.14,878.175 1322.64,882.008 1320,889.5C 1319.41,891.863 1317.91,892.863 1315.5,892.5C 1315.73,904.623 1314.9,916.623 1313,928.5C 1312.17,929.333 1311.33,930.167 1310.5,931C 1293.34,934.393 1276,935.393 1258.5,934C 1253.1,933.192 1247.93,931.692 1243,929.5C 1241.96,927.285 1241.29,924.952 1241,922.5C 1240.59,912.49 1240.09,902.49 1239.5,892.5C 1234.67,892.831 1232.67,890.497 1233.5,885.5C 1233.67,883.5 1233.83,881.5 1234,879.5C 1236.15,878.887 1238.31,878.221 1240.5,877.5C 1227.74,850.986 1214.74,824.653 1201.5,798.5C 1193.18,781.189 1184.84,763.855 1176.5,746.5C 1171.35,745.186 1166.35,745.186 1161.5,746.5C 1159.95,746.179 1159.29,745.179 1159.5,743.5C 1170.3,742.496 1180.97,741.496 1191.5,740.5C 1201.51,740.388 1211.51,740.055 1221.5,739.5C 1233.19,739.721 1244.86,739.388 1256.5,738.5 Z"/></g>
<g><path style="opacity:1" fill="#f38c23" d="M 1222.5,742.5 C 1226.44,742.207 1230.27,742.54 1234,743.5C 1238.16,764.118 1241.99,784.785 1245.5,805.5C 1234.77,785.694 1227.11,764.694 1222.5,742.5 Z"/></g>
<g><path style="opacity:1" fill="#f58f20" d="M 1256.5,741.5 C 1258.29,778.795 1263.96,815.462 1273.5,851.5C 1273.17,851.5 1272.83,851.5 1272.5,851.5C 1265.24,840.633 1258.24,829.633 1251.5,818.5C 1246.08,792.972 1241.41,767.305 1237.5,741.5C 1243.83,741.5 1250.17,741.5 1256.5,741.5 Z"/></g>
<g><path style="opacity:1" fill="#fde362" d="M 1256.5,741.5 C 1269.83,741.5 1283.17,741.5 1296.5,741.5C 1294.8,778.717 1289.47,815.384 1280.5,851.5C 1278.17,852.833 1275.83,852.833 1273.5,851.5C 1263.96,815.462 1258.29,778.795 1256.5,741.5 Z"/></g>
<g><path style="opacity:1" fill="#6fb340" d="M 1296.5,741.5 C 1303.68,741.04 1310.68,741.54 1317.5,743C 1312.31,767.777 1307.31,792.61 1302.5,817.5C 1295.5,828.825 1288.5,840.159 1281.5,851.5C 1281.17,851.5 1280.83,851.5 1280.5,851.5C 1289.47,815.384 1294.8,778.717 1296.5,741.5 Z"/></g>
<g><path style="opacity:1" fill="#6db142" d="M 1331.5,742.5 C 1326.57,764.289 1318.91,784.955 1308.5,804.5C 1312.23,784.152 1316.06,763.819 1320,743.5C 1323.73,742.54 1327.56,742.207 1331.5,742.5 Z"/></g>
<g><path style="opacity:1" fill="#049ac7" d="M 1331.5,742.5 C 1342,742.939 1352.33,743.605 1362.5,744.5C 1349.29,779.689 1329.29,810.356 1302.5,836.5C 1303.86,825.68 1305.86,815.014 1308.5,804.5C 1318.91,784.955 1326.57,764.289 1331.5,742.5 Z"/></g>
<g><path style="opacity:1" fill="#eb4397" d="M 1222.5,742.5 C 1227.11,764.694 1234.77,785.694 1245.5,805.5C 1247.8,814.69 1249.46,824.024 1250.5,833.5C 1224.8,808.106 1205.47,778.439 1192.5,744.5C 1202.42,742.949 1212.42,742.282 1222.5,742.5 Z"/></g>
<g><path style="opacity:1" fill="#eb1b49" d="M 1192.5,744.5 C 1205.47,778.439 1224.8,808.106 1250.5,833.5C 1251.94,835.588 1252.61,837.921 1252.5,840.5C 1246.38,836.599 1240.38,832.433 1234.5,828C 1226,820.998 1217.67,813.831 1209.5,806.5C 1198.97,786.102 1188.97,765.436 1179.5,744.5C 1183.83,744.5 1188.17,744.5 1192.5,744.5 Z"/></g>
<g><path style="opacity:1" fill="#5162ab" d="M 1362.5,744.5 C 1367.54,744.173 1372.54,744.506 1377.5,745.5C 1366.82,766.193 1356.15,786.86 1345.5,807.5C 1336.73,814.432 1328.06,821.598 1319.5,829C 1313.62,833.433 1307.62,837.599 1301.5,841.5C 1301.37,839.708 1301.7,838.042 1302.5,836.5C 1329.29,810.356 1349.29,779.689 1362.5,744.5 Z"/></g>
<g><path style="opacity:1" fill="#ea214a" d="M 1201.5,798.5 C 1185.26,783.339 1171.93,766.006 1161.5,746.5C 1166.35,745.186 1171.35,745.186 1176.5,746.5C 1184.84,763.855 1193.18,781.189 1201.5,798.5 Z"/></g>
<g><path style="opacity:1" fill="#5462aa" d="M 1393.5,746.5 C 1383.65,765.848 1370.65,782.848 1354.5,797.5C 1362.89,780.397 1371.55,763.397 1380.5,746.5C 1384.82,745.46 1389.15,745.46 1393.5,746.5 Z"/></g>
<g><path style="opacity:1" fill="#e5e0da" d="M 1029.5,767.5 C 1037.1,766.354 1042.77,769.02 1046.5,775.5C 1055.84,770.054 1063,772.054 1068,781.5C 1068.5,783.473 1068.66,785.473 1068.5,787.5C 1079.72,787.216 1084.89,792.55 1084,803.5C 1081.28,811.609 1075.78,814.609 1067.5,812.5C 1065.57,825.29 1058.57,829.624 1046.5,825.5C 1041.6,832.076 1035.27,833.909 1027.5,831C 1025.29,829.127 1023.46,826.96 1022,824.5C 1022.39,838.463 1015.89,843.963 1002.5,841C 997.937,838.041 995.937,833.874 996.5,828.5C 988.389,829.946 982.722,826.946 979.5,819.5C 972.321,825.161 965.488,824.828 959,818.5C 957.872,816.655 957.372,814.655 957.5,812.5C 944.231,814.397 938.398,808.73 940,795.5C 944.541,787.362 951.041,785.362 959.5,789.5C 964.64,777.737 972.474,775.403 983,782.5C 987.503,775.437 993.503,773.771 1001,777.5C 1004.53,769.154 1010.7,766.321 1019.5,769C 1020.97,769.635 1022.3,770.469 1023.5,771.5C 1025.57,770.143 1027.57,768.81 1029.5,767.5 Z"/></g>
<g><path style="opacity:1" fill="#e5e0da" d="M 1472.5,772.5 C 1481.68,770.745 1487.01,774.412 1488.5,783.5C 1495.48,782.987 1500.15,785.987 1502.5,792.5C 1510.88,786.199 1517.55,787.699 1522.5,797C 1534.64,797.159 1539.14,802.992 1536,814.5C 1531.13,819.858 1525.46,820.858 1519,817.5C 1516.99,826.428 1511.49,829.595 1502.5,827C 1501.65,825.978 1500.65,825.145 1499.5,824.5C 1498.31,826.527 1496.64,828.027 1494.5,829C 1490.91,829.789 1487.41,829.622 1484,828.5C 1479.23,836.973 1472.73,838.64 1464.5,833.5C 1456.15,839.808 1449.32,838.475 1444,829.5C 1437.77,833.93 1432.1,833.263 1427,827.5C 1425.92,824.937 1425.42,822.271 1425.5,819.5C 1413.89,819.382 1409.72,813.715 1413,802.5C 1416.49,797.74 1420.99,796.407 1426.5,798.5C 1427.31,787.197 1433.14,783.197 1444,786.5C 1446.11,785.392 1447.95,783.892 1449.5,782C 1456.56,779.114 1462.06,780.948 1466,787.5C 1465.07,780.985 1467.24,775.985 1472.5,772.5 Z"/></g>
<g><path style="opacity:1" fill="#d6cfc6" d="M 1209.5,806.5 C 1217.67,813.831 1226,820.998 1234.5,828C 1240.38,832.433 1246.38,836.599 1252.5,840.5C 1254.99,853.468 1257.33,866.468 1259.5,879.5C 1254.46,879.827 1249.46,879.494 1244.5,878.5C 1232.82,854.478 1221.16,830.478 1209.5,806.5 Z"/></g>
<g><path style="opacity:1" fill="#d5cfc7" d="M 1345.5,807.5 C 1333.32,831.354 1320.99,855.187 1308.5,879C 1303.5,879.667 1298.5,879.667 1293.5,879C 1295.94,866.441 1298.6,853.941 1301.5,841.5C 1307.62,837.599 1313.62,833.433 1319.5,829C 1328.06,821.598 1336.73,814.432 1345.5,807.5 Z"/></g>
<g><path style="opacity:1" fill="#1898c2" d="M 1302.5,817.5 C 1301.58,826.02 1299.91,834.353 1297.5,842.5C 1295.17,844.167 1293.17,846.167 1291.5,848.5C 1290.83,849.5 1290.17,850.5 1289.5,851.5C 1286.83,851.5 1284.17,851.5 1281.5,851.5C 1288.5,840.159 1295.5,828.825 1302.5,817.5 Z"/></g>
<g><path style="opacity:1" fill="#eb4594" d="M 1251.5,818.5 C 1258.24,829.633 1265.24,840.633 1272.5,851.5C 1270.5,851.5 1268.5,851.5 1266.5,851.5C 1266.5,851.167 1266.5,850.833 1266.5,850.5C 1263.17,846.5 1259.5,842.833 1255.5,839.5C 1253.98,832.543 1252.65,825.543 1251.5,818.5 Z"/></g>
<g><path style="opacity:1" fill="#ea2f58" d="M 1255.5,839.5 C 1259.5,842.833 1263.17,846.5 1266.5,850.5C 1262.92,848.925 1259.59,846.925 1256.5,844.5C 1255.7,842.958 1255.37,841.292 1255.5,839.5 Z"/></g>
<g><path style="opacity:1" fill="#5665ac" d="M 1297.5,842.5 C 1297.47,844.199 1296.81,845.533 1295.5,846.5C 1294.4,847.6 1293.06,848.267 1291.5,848.5C 1293.17,846.167 1295.17,844.167 1297.5,842.5 Z"/></g>
<g><path style="opacity:1" fill="#d6d0c7" d="M 1256.5,844.5 C 1259.59,846.925 1262.92,848.925 1266.5,850.5C 1266.5,850.833 1266.5,851.167 1266.5,851.5C 1265.96,851.56 1265.62,851.893 1265.5,852.5C 1268.09,853.48 1270.75,853.813 1273.5,853.5C 1273.5,856.167 1273.5,858.833 1273.5,861.5C 1276.4,861.875 1279.06,861.375 1281.5,860C 1280.58,857.959 1280.24,855.792 1280.5,853.5C 1283.19,853.664 1285.85,853.497 1288.5,853C 1289.06,852.617 1289.39,852.117 1289.5,851.5C 1290.17,850.5 1290.83,849.5 1291.5,848.5C 1293.06,848.267 1294.4,847.6 1295.5,846.5C 1296.15,847.274 1296.48,848.274 1296.5,849.5C 1294.24,859.795 1292.24,870.129 1290.5,880.5C 1281.17,880.5 1271.83,880.5 1262.5,880.5C 1261.14,868.392 1259.14,856.392 1256.5,844.5 Z"/></g>
<g><path style="opacity:1" fill="#897664" d="M 1266.5,851.5 C 1268.5,851.5 1270.5,851.5 1272.5,851.5C 1272.83,851.5 1273.17,851.5 1273.5,851.5C 1275.83,852.833 1278.17,852.833 1280.5,851.5C 1280.83,851.5 1281.17,851.5 1281.5,851.5C 1284.17,851.5 1286.83,851.5 1289.5,851.5C 1289.39,852.117 1289.06,852.617 1288.5,853C 1285.85,853.497 1283.19,853.664 1280.5,853.5C 1280.24,855.792 1280.58,857.959 1281.5,860C 1279.06,861.375 1276.4,861.875 1273.5,861.5C 1273.5,858.833 1273.5,856.167 1273.5,853.5C 1270.75,853.813 1268.09,853.48 1265.5,852.5C 1265.62,851.893 1265.96,851.56 1266.5,851.5 Z"/></g>
<g><path style="opacity:1" fill="#d3cdc3" d="M 1275.5,854.5 C 1276.98,854.238 1278.31,854.571 1279.5,855.5C 1278.75,856.736 1278.42,858.07 1278.5,859.5C 1277.5,859.5 1276.5,859.5 1275.5,859.5C 1275.5,857.833 1275.5,856.167 1275.5,854.5 Z"/></g>
</svg>
